<svg width="108" height="72" viewBox="0 0 108 72" fill="none" xmlns="http://www.w3.org/2000/svg">
<g id="play button" clip-path="url(#clip0_1186_844)">
<g id="group">
<mask id="mask0_1186_844" style="mask-type:alpha" maskUnits="userSpaceOnUse" x="0" y="0" width="108" height="72">
<path id="Vector" d="M0 0H108V72L0 0Z" fill="#C4C4C4"/>
</mask>
<g mask="url(#mask0_1186_844)">
<path id="Vector_2" d="M0 0H108V72L0 0Z" fill="url(#paint0_linear_1186_844)"/>
<path id="Vector_3" d="M0 -27L114.75 49.5V-27H0Z" fill="url(#paint1_radial_1186_844)"/>
<path id="Vector_4" d="M0 83.9924L114.75 7.49243V83.9999H0V83.9924Z" fill="url(#paint2_radial_1186_844)"/>
</g>
</g>
<path id="Vector_5" d="M0 83.9925L114.75 7.4925V0H0V83.9925Z" fill="url(#paint3_radial_1186_844)"/>
<path id="Vector_6" d="M62.9924 15V42L83.2424 28.5L62.9924 15Z" fill="url(#paint4_linear_1186_844)"/>
</g>
<defs>
<linearGradient id="paint0_linear_1186_844" x1="0" y1="0" x2="108" y2="72" gradientUnits="userSpaceOnUse">
<stop stop-color="#FF0000" stop-opacity="0.25"/>
<stop offset="0.508575" stop-color="#FF0000"/>
<stop offset="1" stop-color="#960000" stop-opacity="0.28"/>
</linearGradient>
<radialGradient id="paint1_radial_1186_844" cx="0" cy="0" r="1" gradientUnits="userSpaceOnUse" gradientTransform="translate(107.25 54.75) rotate(-90) scale(51 51)">
<stop stop-color="#960000"/>
<stop offset="1" stop-color="#FF0000" stop-opacity="0.01"/>
</radialGradient>
<radialGradient id="paint2_radial_1186_844" cx="0" cy="0" r="1" gradientUnits="userSpaceOnUse" gradientTransform="translate(63 41.9999) rotate(90) scale(40.125)">
<stop stop-color="#FF9600"/>
<stop offset="1" stop-color="#FF0000" stop-opacity="0.01"/>
</radialGradient>
<radialGradient id="paint3_radial_1186_844" cx="0" cy="0" r="1" gradientUnits="userSpaceOnUse" gradientTransform="translate(79.5 31.5) rotate(-90) scale(40.5 40.5)">
<stop stop-color="#6100FF"/>
<stop offset="1" stop-color="#6100FF" stop-opacity="0.01"/>
</radialGradient>
<linearGradient id="paint4_linear_1186_844" x1="73.1174" y1="15" x2="73.1174" y2="42" gradientUnits="userSpaceOnUse">
<stop stop-color="white"/>
<stop offset="1" stop-color="white" stop-opacity="0.85"/>
</linearGradient>
<clipPath id="clip0_1186_844">
<rect width="108" height="72" fill="white"/>
</clipPath>
</defs>
</svg>
